<?xml version="1.0" encoding="UTF-8"?>
<svg xmlns="http://www.w3.org/2000/svg" viewBox="0 0 128 112" width="128" height="112">
  <defs>
    <linearGradient id="top1" x1="20%" y1="8%" x2="85%" y2="92%">
      <stop offset="0%" stop-color="#fffdf8"/>
      <stop offset="35%" stop-color="#faf0dc"/>
      <stop offset="100%" stop-color="#e6d4ae"/>
    </linearGradient>
    <linearGradient id="left1" x1="0%" y1="0%" x2="100%" y2="100%">
      <stop offset="0%" stop-color="#efe3c8"/>
      <stop offset="100%" stop-color="#b8944a"/>
    </linearGradient>
    <linearGradient id="right1" x1="100%" y1="0%" x2="0%" y2="100%">
      <stop offset="0%" stop-color="#e8d8b4"/>
      <stop offset="100%" stop-color="#9a7428"/>
    </linearGradient>
    <filter id="pip1" x="-100%" y="-100%" width="300%" height="300%">
      <feDropShadow dx="0" dy="1" stdDeviation="0.7" flood-color="#000" flood-opacity="0.4"/>
    </filter>
    <filter id="drop1" x="-20%" y="-15%" width="140%" height="145%">
      <feDropShadow dx="0" dy="4" stdDeviation="3.5" flood-color="#000" flood-opacity="0.45"/>
    </filter>
    <radialGradient id="glint1" cx="42%" cy="32%" r="48%">
      <stop offset="0%" stop-color="#fff" stop-opacity="0.55"/>
      <stop offset="55%" stop-color="#fff" stop-opacity="0.12"/>
      <stop offset="100%" stop-color="#fff" stop-opacity="0"/>
    </radialGradient>
    <clipPath id="clipTop1"><polygon points="64,6 116,44 64,86 12,44"/></clipPath>
  </defs>
  <ellipse cx="64" cy="106" rx="38" ry="5.5" fill="rgba(0,0,0,0.22)"/>
  <g filter="url(#drop1)">
    <polygon points="12,44 64,86 64,98 12,56" fill="url(#left1)" stroke="rgba(90,62,22,0.5)" stroke-width="1" stroke-linejoin="round"/>
    <polygon points="64,86 116,44 116,56 64,98" fill="url(#right1)" stroke="rgba(75,52,18,0.55)" stroke-width="1" stroke-linejoin="round"/>
    <polygon points="64,6 116,44 64,86 12,44" fill="url(#top1)" stroke="rgba(210,175,70,0.7)" stroke-width="1.2" stroke-linejoin="round"/>
    <polygon points="64,6 116,44 64,86 12,44" fill="url(#glint1)" stroke="none"/>
    <circle cx="28.64" cy="64.06" r="3.96" fill="#c41e3a" filter="url(#pip1)"/>
    <circle cx="47.36" cy="79.18" r="3.96" fill="#c41e3a" filter="url(#pip1)"/>
    <circle cx="80.64" cy="79.18" r="3.96" fill="#1a1410" filter="url(#pip1)"/>
    <g clip-path="url(#clipTop1)">
      <circle cx="64.00" cy="45.00" r="6.2" fill="#c41e3a" filter="url(#pip1)"/>
    </g>
  </g>
</svg>