<svg xmlns="http://www.w3.org/2000/svg" viewBox="0 0 52 58" fill="none">
  <defs>
    <linearGradient id="gR" x1="100%" y1="0%" x2="0%" y2="100%">
      <stop offset="0%" stop-color="#ffeaa0"/>
      <stop offset="45%" stop-color="#d4af37"/>
      <stop offset="100%" stop-color="#8a6020"/>
    </linearGradient>
    <filter id="sR" x="-20%" y="-20%" width="140%" height="140%">
      <feDropShadow dx="0" dy="1" stdDeviation="1.2" flood-color="#000" flood-opacity="0.45"/>
    </filter>
  </defs>
  <g filter="url(#sR)" stroke="url(#gR)" stroke-width="2.2" stroke-linecap="round" stroke-linejoin="round">
    <path d="M18 8 C24 8 28 12 28 18 C28 24 24 28 18 28 C12 28 8 24 8 18 C8 12 12 8 18 8 Z"/>
    <path d="M34 22 C40 22 44 26 44 32 C44 38 40 42 34 42 C28 42 24 38 24 32"/>
    <path d="M18 28 L24 32"/>
    <path d="M34 42 C34 48 30 52 24 52 C18 52 14 48 14 42"/>
    <path d="M44 32 L48 32"/>
    <path d="M48 32 L50 28"/>
    <path d="M48 32 L50 36"/>
    <circle cx="8" cy="18" r="2.2" fill="url(#gR)" stroke="none"/>
    <circle cx="44" cy="32" r="2" fill="url(#gR)" stroke="none"/>
  </g>
</svg>
