<svg xmlns="http://www.w3.org/2000/svg" viewBox="0 0 52 58" fill="none">
  <defs>
    <linearGradient id="gL" x1="0%" y1="0%" x2="100%" y2="100%">
      <stop offset="0%" stop-color="#ffeaa0"/>
      <stop offset="45%" stop-color="#d4af37"/>
      <stop offset="100%" stop-color="#8a6020"/>
    </linearGradient>
    <filter id="sL" x="-20%" y="-20%" width="140%" height="140%">
      <feDropShadow dx="0" dy="1" stdDeviation="1.2" flood-color="#000" flood-opacity="0.45"/>
    </filter>
  </defs>
  <g filter="url(#sL)" stroke="url(#gL)" stroke-width="2.2" stroke-linecap="round" stroke-linejoin="round">
    <path d="M34 8 C28 8 24 12 24 18 C24 24 28 28 34 28 C40 28 44 24 44 18 C44 12 40 8 34 8 Z"/>
    <path d="M18 22 C12 22 8 26 8 32 C8 38 12 42 18 42 C24 42 28 38 28 32"/>
    <path d="M34 28 L28 32"/>
    <path d="M18 42 C18 48 22 52 28 52 C34 52 38 48 38 42"/>
    <path d="M8 32 L4 32"/>
    <path d="M4 32 L2 28"/>
    <path d="M4 32 L2 36"/>
    <circle cx="44" cy="18" r="2.2" fill="url(#gL)" stroke="none"/>
    <circle cx="8" cy="32" r="2" fill="url(#gL)" stroke="none"/>
  </g>
</svg>
